<svg width="523" height="385" viewBox="0 0 523 385" fill="none" xmlns="http://www.w3.org/2000/svg">
<path d="M101.96 122.759L103.098 121.65C105.965 120.807 107.809 122.237 109.766 124.089C112.337 126.54 114.249 130.167 119.449 129.879C116.32 132.729 118.197 136.278 117.241 139.483C116.82 140.913 118.117 144.518 121.724 143.486C123.488 142.976 125.138 143.409 126.867 143.309C128.597 143.209 130.542 143.309 130.281 145.527C129.962 148.555 128.164 146.093 127.026 146.048C124.842 145.948 124.034 145.882 124.409 148.943C125.081 154.488 129.279 155.697 133 158.115C135.924 160.011 139.121 160.554 145.618 158.458C147.769 157.76 149.919 158.458 151.99 159.224C152.923 159.556 153.89 160.543 154.858 159.146C155.037 158.926 155.161 158.668 155.219 158.392C155.276 158.117 155.265 157.832 155.187 157.561C155.11 157.29 154.967 157.041 154.771 156.835C154.575 156.628 154.332 156.47 154.061 156.373C150.978 154.787 149.76 151.15 146.881 149.719C143.013 147.834 148.27 146.703 146.881 145.283C148.713 144.174 149.339 145.361 150.227 146.692C155.222 154.189 163.164 158.98 168.864 165.922C172.448 170.292 178.786 168.828 183.826 169.338C194.238 170.391 203.829 166.011 213.626 163.338C214.923 162.983 215.902 161.53 217.04 160.51C225.004 152.747 235.085 149.475 245.667 147.002C253.552 145.15 261.801 143.963 266.876 136.444C268.355 134.226 271.018 130.744 272.235 139.505C274.079 131.564 280.564 132.385 283.477 128.415C285.138 126.197 288.597 125.576 288.54 121.561C288.54 118.977 296.505 117.025 298.269 119.176C300.032 121.328 301.682 119.176 303.173 119.565C313.003 122.049 322.834 124.001 333.382 120.951C332.722 122.992 332.153 123.834 331.106 123.746C328.102 123.491 327.511 125.132 327.954 127.472C328.58 130.799 330.503 128.98 332.142 128.404C332.661 128.163 333.255 128.124 333.803 128.293C340.505 132.008 347.627 128.57 354.557 129.124C364.035 129.89 370.975 135.424 379.35 137.997C381.682 138.706 384.083 138.895 386.325 139.66C390.467 140.904 394.286 143.004 397.521 145.815C402.755 150.64 410.105 153.357 412.381 161.131C412.782 162.276 413.484 163.299 414.416 164.099C415.348 164.899 416.478 165.447 417.694 165.689C421.108 166.066 422.872 169.016 423.645 170.824C425.83 175.959 428.913 177.822 434.227 175.992C434.75 178.82 431.69 177.356 431.405 178.92C431.226 179.429 431.152 179.968 431.189 180.506C432.213 184.121 426.092 185.508 427.776 187.859C429.118 189.755 432.475 190.653 433.59 193.404C434.512 195.09 433.431 197.053 434.386 198.738C441.043 204.993 444.069 213.267 447.062 221.873C441.373 221.74 437.788 225.2 435.627 230.445C435.297 231.244 434.182 231.932 435.001 232.819C439.268 237.41 433.635 238.175 431.803 239.761C429.073 242.135 425.5 243.543 422.837 246.183C421.233 247.757 419.424 248.922 418.514 245.329C418.07 243.654 416.659 242.234 415.726 240.671C414.52 238.63 413.28 235.547 410.549 236.889C408.057 238.109 409.741 241.425 410.549 243.199C412.267 247.181 411.948 249.11 407.556 251.24C404.848 252.548 404.598 256.907 403.506 260.012C402.914 261.683 402.315 263.358 401.708 265.036C397.487 265.225 395.177 261.254 394.563 259.147C393.493 255.443 390.739 254.079 388.543 251.839C382.251 245.429 378.076 237.765 374.48 229.658C372.364 224.934 367.721 221.518 367.46 215.718C367.323 212.612 366.174 210.383 370.873 212.956C371.953 213.587 373.238 213.797 374.47 213.544C375.702 213.291 376.791 212.594 377.518 211.592C379.134 209.174 380.237 206.524 377.188 204.339C374.81 202.62 377.37 201.4 377.882 201.322C382.945 200.568 383.15 195.644 386.2 192.339C387.337 194.557 387.656 197.618 391.217 196.864C392.355 192.428 387.804 191.519 385.119 189.101C384.178 190.533 383.075 191.858 381.83 193.049C381.091 193.626 378.804 195.4 379.02 192.25C379.213 189.434 376.904 190.032 375.606 189.678C373.627 189.212 372.716 190.909 372.307 192.461C371.897 194.014 371.431 196.221 369.917 196.287C368.063 196.376 367.494 194.069 366.367 192.683C363.25 188.946 361.554 185.186 362.886 180.362C362.883 180.003 362.788 179.65 362.609 179.336C362.43 179.022 362.173 178.757 361.862 178.565C355.539 176.195 350.005 172.179 345.864 166.953C344.908 165.689 341.312 169.305 340.254 165.922C338.991 161.73 335.202 160.943 332.051 159.445C323.289 155.275 313.982 154.41 304.367 155.752C303.564 155.92 302.803 156.24 302.128 156.695C301.452 157.15 300.875 157.73 300.431 158.403C297.666 162.917 292.625 163.504 287.914 164.824C285.332 165.556 282.589 167.175 283.852 170.303C285.684 174.839 282.624 176.436 279.699 178.388C280.837 179.497 282.817 179.497 283.796 181.593C274.374 185.142 267.946 193.171 258.763 197.186C254.906 198.871 250.913 200.624 246.634 199.847C242.14 199.027 240.092 201.544 238.34 204.627C236.439 207.954 236.36 212.39 239.25 214.231C245.201 217.991 248.011 224.457 253.461 228.294C259.15 232.275 262.894 237.488 266.353 243.122C269.493 248.245 268.48 250.763 262.53 252.238C259.205 252.992 255.805 253.386 252.392 253.414C249.718 253.502 245.883 253.624 245.36 258.548C245.121 260.877 241.946 263.727 238.738 263.927C230.898 264.426 223.309 266.899 215.321 266.356C210.884 266.068 208.381 263.583 210.531 259.868C212.283 256.818 209.393 255.587 208.961 253.524C207.719 248.776 205.944 244.176 203.67 239.806C201.861 236.013 196.16 231.932 200.882 226.741C199.881 225.41 199.506 226.653 198.948 226.741C190.983 227.418 192.292 233.529 191.734 238.497C191.45 241.026 191.427 242.933 187.559 241.092C183.113 239.12 178.458 237.632 173.677 236.656C172.252 236.353 170.933 235.691 169.852 234.735C168.772 233.78 167.968 232.564 167.521 231.211C165.371 225.765 165.314 219.3 159.09 215.917C158.499 215.596 159.09 214.309 159.227 213.411C159.921 209.917 158.692 209.662 155.21 209.518C151.729 209.374 148.247 207.533 144.742 206.502C140.521 205.259 136.106 201.566 132.34 207.278C128.927 204.45 124.489 206.923 119.369 204.771C124.114 203.751 129.7 204.084 126.594 197.884C125.672 198.173 124.717 199.681 123.42 198.849C120.177 196.742 118.402 196.232 120.143 201.067C120.251 201.378 120.296 201.707 120.273 202.035C120.25 202.362 120.161 202.682 120.011 202.976C119.861 203.27 119.652 203.532 119.398 203.747C119.143 203.962 118.847 204.125 118.527 204.228C117.931 204.514 117.269 204.643 116.606 204.603C115.943 204.562 115.303 204.352 114.749 203.995C113.896 203.385 112.94 202.598 114.18 201.345C114.453 201.067 117.594 202.021 114.943 200.091C113.691 202.01 114.124 195.777 111.723 199.637C109.322 203.496 105.635 200.047 102.825 199.138C99.7231 197.955 96.301 197.833 93.1193 198.794C85.1545 201.245 83.6071 203.729 86.3834 211.57C87.123 213.688 87.123 213.688 84.1077 216.35C84.1077 208.365 81.5249 202.032 73.6853 198.816C75.8927 195.489 78.8396 192.628 82.6855 191.474C86.5313 190.321 87.7715 188.203 87.1116 184.609C86.2355 182.857 87.305 180.861 86.3379 179.12C79.8751 170.868 80.4212 168.717 89.9903 163.904C91.5264 163.138 94.1206 163.116 93.9499 160.732C93.7792 158.514 91.8449 157.737 89.7969 156.883C83.6299 154.322 78.5779 150.983 80.3757 142.954C81.0811 139.804 80.3757 136.355 80.5122 133.05C80.6146 129.967 79.2606 126.163 84.836 125.864C87.2026 125.742 85.2683 123.956 85.1432 122.925C84.6767 119.077 86.1103 117.968 89.9448 119.376C93.3583 120.64 95.8273 123.125 98.6491 125.154C100.754 125.553 101.198 123.956 101.96 122.759Z" fill="#FFC947"/>
<path d="M163.63 259.702C158.089 259.436 154.084 256.619 150.83 252.859C147.985 249.532 151.968 240.66 156.28 240.138C156.781 240.169 157.25 240.387 157.588 240.748C156.929 244.075 164.131 245.739 159.477 250.342C158.191 251.606 160.137 255.199 163.46 255.277C165.815 255.343 166.418 257.14 166.486 258.504C166.6 260.445 164.541 259.413 163.63 259.702Z" fill="#FFC947"/>
<path d="M337.341 204.062C333.678 200.879 333.245 196.897 333.541 192.616C333.7 190.498 334.372 189.156 336.761 189.023C338.741 188.912 340.072 189.023 340.675 191.541C341.495 195.001 344.828 198.661 338.4 200.114C335.145 200.879 339.219 202.953 337.341 204.062Z" fill="#FFC947"/>
<path d="M189.937 248.134C193.953 247.391 196.274 241.192 203.295 245.728C197.572 245.406 194.363 248.756 189.937 248.134Z" fill="#FFC947"/>
<path d="M324.655 198.239C328.694 201.123 326.305 203.186 323.961 205.337C322.004 202.709 323.142 200.491 324.655 198.239Z" fill="#FFC947"/>
<path d="M326.714 194.08C326.612 194.291 326.339 195.09 326.236 195.067C325.704 194.97 325.21 194.731 324.808 194.377C324.406 194.022 324.113 193.567 323.961 193.06C323.722 192.306 324.541 192.439 324.973 192.395C326.077 192.295 326.703 192.749 326.714 194.08Z" fill="#FFC947"/>
<path d="M153.754 261.986C154.414 262.086 155.279 262.042 154.755 263.095C154.46 263.716 153.925 264.848 153.754 264.803C153.318 264.727 152.925 264.502 152.643 264.169C152.362 263.836 152.211 263.416 152.218 262.984C152.241 262.031 153.026 262.031 153.754 261.986Z" fill="#FFC947"/>
<path d="M432.225 374.52C431.007 373.998 429.437 373.355 430.518 371.847C431.417 370.605 432.407 372.39 433.453 372.479L433.374 372.379C434.125 373.666 433.26 374.143 432.225 374.52Z" fill="#185ADB"/>
<path d="M439.291 375.318L440.428 373.178C441.043 374.287 444.49 375.318 440.428 376.638L439.291 375.318Z" fill="white"/>
<path d="M125.161 135.435C123.067 133.428 120.461 132.696 120.746 129.89C120.746 129.424 122.828 128.537 123.397 128.781C125.729 130.123 126.64 132.119 125.161 135.435Z" fill="#FFC947"/>
<path d="M130.497 141.268C131.987 137.143 129.12 136.233 126.947 134.104C130.184 134.179 133.269 135.457 135.571 137.675L130.497 141.268Z" fill="#FFC947"/>
<path d="M434.364 198.783C432.634 197.208 433.556 195.267 433.567 193.448C435.41 195.001 434.295 196.975 434.364 198.783Z" fill="#FCFDF7"/>
<path d="M101.96 122.759C101.858 124.799 101.846 126.951 98.7402 125.132L101.96 122.759Z" fill="white"/>
<path d="M86.4745 179.097C88.3178 180.717 87.18 182.735 87.2482 184.587C85.4505 182.99 86.4745 180.949 86.4745 179.097Z" fill="#FEFFFE"/>
<path d="M521.908 137.132C521.601 136.023 520.611 135.812 517.914 137.875C516.695 138.98 515.624 140.233 514.728 141.601C513.78 143.024 512.351 144.08 510.689 144.584C511.758 147.446 510.689 149.497 509.198 151.438C507.708 153.379 505.899 155.198 505.489 157.604C505.134 159.04 504.366 160.347 503.276 161.373C502.186 162.398 500.818 163.099 499.333 163.394C496.432 163.76 494.532 165.345 492.768 167.076C491.004 168.806 489.412 170.702 487.079 171.7C484.805 172.886 482.742 174.421 480.969 176.247C479.159 178.115 476.886 179.498 474.37 180.262C473.333 180.47 472.276 180.563 471.218 180.539C470.128 180.529 469.049 180.748 468.055 181.182C467.186 181.552 466.362 182.013 465.597 182.558C464.88 183.095 464.37 183.853 464.152 184.709C463.986 185.116 463.982 185.569 464.14 185.979C464.297 186.389 464.606 186.727 465.005 186.927C465.699 187.338 466.621 187.537 467.281 187.892C468.905 188.764 470.373 189.888 471.627 191.219C472.184 191.726 472.624 192.341 472.918 193.026C473.212 193.71 473.354 194.448 473.334 195.189C472.674 199.626 473.436 203.895 474.244 208.132C475.052 212.368 475.906 216.583 475.382 220.941C475.259 222.022 474.869 223.057 474.244 223.958C473.631 224.859 472.766 225.57 471.753 226.009C470.354 226.613 468.788 226.746 467.304 226.386C465.796 225.992 464.371 225.343 463.094 224.468C461.432 223.414 461.478 222.361 461.956 221.318C462.434 220.276 463.207 219.211 463.094 218.146C462.98 217.082 463.879 216.605 464.812 216.072C465.745 215.54 466.712 214.963 466.78 213.744C465.87 213.156 464.323 213.311 463.048 213.211C461.774 213.111 460.773 212.756 461.068 211.159C461.263 210.394 461.249 209.592 461.027 208.833C460.806 208.074 460.384 207.385 459.805 206.834C458.759 206.016 457.653 205.275 456.494 204.616C455.267 203.79 454.124 202.85 453.081 201.81C452.1 200.815 451.328 199.644 450.805 198.361C450.279 196.985 449.47 195.728 448.427 194.668C447.422 193.682 446.206 192.925 444.866 192.45C443.327 191.915 441.942 191.029 440.827 189.866C439.787 188.741 439.073 187.367 438.756 185.885C438.64 185.072 438.345 184.294 437.891 183.603C437.437 182.911 436.836 182.324 436.127 181.881C434.659 181.199 433.018 180.948 431.405 181.16C428.663 184.975 427.298 186.883 427.332 188.646C427.366 190.41 428.788 191.973 431.633 195.3C431.752 195.435 431.858 195.58 431.952 195.733C432.043 195.888 432.134 196.054 432.236 196.21C432.705 196.98 432.985 197.845 433.055 198.738C433.169 199.614 433.192 200.513 433.351 201.378C435.467 204.272 437.641 207.123 439.529 210.128C441.499 213.143 443.002 216.424 443.99 219.865C444.331 220.73 444.444 221.664 444.32 222.583C444.115 223.281 443.455 223.78 441.964 224.18C439.505 224.79 437.392 226.32 436.082 228.438C434.88 230.466 434.208 232.752 434.125 235.092C434.097 236.624 433.664 238.122 432.866 239.442C432.069 240.761 430.934 241.857 429.573 242.623C427.15 244.142 424.237 245.085 422.03 246.615C420.391 247.724 419.526 246.859 418.81 245.506C418.093 244.153 417.513 242.246 416.409 241.447C416.052 241.158 415.738 240.822 415.476 240.449C415.202 240.072 414.889 239.722 414.543 239.406C413.983 238.917 413.33 238.54 412.62 238.297C411.901 238.056 411.117 238.076 410.413 238.353C410.052 238.475 409.725 238.674 409.453 238.935C409.182 239.196 408.973 239.512 408.842 239.861C408.595 240.574 408.494 241.328 408.546 242.079C408.55 242.906 408.634 243.73 408.797 244.541C408.956 245.351 409.172 246.149 409.411 246.937C409.717 247.783 409.753 248.699 409.514 249.565C409.206 250.435 408.654 251.204 407.921 251.783C405.68 253.718 403.968 256.164 402.937 258.903C401.978 261.592 401.542 264.432 401.651 267.276C403.46 268.629 405.429 269.86 407.34 271.169C409.202 272.427 410.886 273.918 412.347 275.605C413.394 276.87 415.578 278.178 416.705 279.786C417.831 281.394 417.843 283.313 414.679 285.786C414.568 285.863 414.475 285.963 414.407 286.079C414.339 286.195 414.297 286.324 414.285 286.457C414.273 286.59 414.291 286.723 414.338 286.849C414.384 286.974 414.458 287.089 414.554 287.184C414.933 287.652 415.416 288.031 415.965 288.293C418.34 289.394 420.379 291.08 421.882 293.183C423.365 295.388 424.36 297.869 424.806 300.47C427.252 298.873 429.232 298.252 430.62 298.784C432.008 299.316 432.771 301.002 432.816 303.974C432.796 304.46 432.94 304.94 433.226 305.338C433.477 305.65 433.818 305.882 434.204 306.004C436.059 306.636 436.787 307.468 436.958 308.521C436.985 309.817 436.753 311.105 436.275 312.314C435.734 314.259 435.353 316.243 435.137 318.247C434.91 320.247 434.865 322.262 435.001 324.27C435.075 324.804 435.038 325.348 434.891 325.868C434.745 326.389 434.492 326.875 434.147 327.297C433.554 327.927 432.812 328.406 431.986 328.695C431.23 328.92 430.53 329.293 429.928 329.79C429.325 330.288 428.833 330.9 428.481 331.589C428.083 332.698 428.481 333.94 430.04 335.127C433.135 337.646 435.631 340.79 437.356 344.343C439.131 347.77 440.485 351.419 442.112 354.934C442.735 356.242 443.094 357.654 443.17 359.093C443.234 359.722 443.134 360.357 442.88 360.939C442.625 361.52 442.224 362.03 441.714 362.42C440.394 363.319 439.643 365.193 438.505 366.546C437.368 367.899 435.82 368.708 432.919 367.466C431.613 367.221 430.26 367.429 429.096 368.054C427.673 368.708 426.433 369.74 426.388 370.915C426.342 372.091 427.252 372.535 428.447 372.59C429.642 372.645 431.087 372.379 432.134 372.401C433.18 372.424 433.715 372.668 433.874 373.067C433.969 373.641 433.857 374.229 433.556 374.73V375.063C433.556 375.174 433.556 375.285 433.556 375.396C433.556 376.117 433.738 376.838 433.727 377.614C433.727 378.031 433.639 378.444 433.466 378.826C433.294 379.208 433.041 379.551 432.725 379.832L433.715 382.261L434.705 384.678" stroke="#185ADB" stroke-width="2" stroke-miterlimit="10"/>
<path d="M521.839 141.124C522.015 139.8 522.038 138.461 521.908 137.132" stroke="#185ADB" stroke-miterlimit="10"/>
<path d="M23.2799 1.26429C24.6111 1.26429 26.5341 0.443608 27.0916 2.5064C27.5922 4.36958 25.5669 4.07014 24.8159 4.82428C21.0498 8.29554 19.4682 11.8999 21.6187 17.3785C23.9853 23.3673 25.6579 29.5778 29.7996 34.6905C31.0285 36.1988 32.4849 37.8734 35.227 37.7958C38.4471 37.6959 38.6405 44.6274 36.8769 49.9951C40.791 48.387 41.9402 51.5477 42.566 53.6216C46.207 64.7119 53.637 73.4178 60.9191 82.7448C63.1947 85.6837 65.5841 88.5783 68.0987 91.3619C69.3817 93.0086 71.2328 94.1471 73.3099 94.567C77.2582 95.2879 77.4061 99.6908 79.3973 102.33C82.4922 106.356 86.7704 109.251 89.5125 113.665C90.4359 114.951 91.6974 115.972 93.1649 116.62C94.6323 117.268 96.2515 117.519 97.8528 117.347C100.902 117.08 102.916 118.456 103.075 121.683C102.854 122.431 102.517 123.142 102.074 123.79C100.936 124.999 99.6278 125.942 97.7731 125.576C95.9298 125.01 94.5872 123.657 92.9829 122.714C90.0018 120.951 86.9866 119.088 86.759 124.932C86.7526 125.305 86.6436 125.67 86.4435 125.988C86.2434 126.306 85.9594 126.565 85.6212 126.74C81.4795 128.648 81.9688 132.285 81.9688 135.768C82.1483 137.982 82.1483 140.207 81.9688 142.422C80.8992 148.854 83.6869 152.913 89.6491 155.331C91.0448 155.784 92.3277 156.517 93.4153 157.482C95.6112 159.811 95.6909 162.007 92.8805 163.959C92.4097 164.264 91.9237 164.545 91.4241 164.802C84.0851 168.794 81.9574 170.07 87.271 178.876C87.7717 180.717 87.7034 182.668 88.3178 184.498C88.955 187.448 88.3178 190.221 85.4733 191.496C81.195 193.404 77.9636 196.786 73.7764 198.76C72.4111 198.605 72.5135 196.764 70.8181 196.631C68.8155 196.465 67.8939 196.01 70.1468 193.847C73.7764 190.354 69.2707 187.005 68.7245 183.533C68.6562 183.123 67.4046 183.467 68.4173 182.07C70.6929 178.931 67.2795 178.266 65.459 178.254C61.3856 178.254 58.632 177.267 56.4815 173.419C54.2059 169.338 50.2463 172.543 47.7772 173.419C44.762 174.528 47.9137 176.303 48.6647 177.855C49.2087 179.088 50.014 180.195 51.0279 181.102C52.0417 182.01 53.2411 182.699 54.5472 183.123C56.4588 183.855 58.5979 185.341 58.3817 187.903C58.2338 189.533 59.9519 191.43 57.8014 192.816C55.9468 194.014 54.7634 192.761 53.307 191.84C51.8506 190.92 50.0301 189.944 48.6647 190.243C40.0969 192.173 37.1841 184.521 31.7908 181.138C29.4014 179.63 31.677 177.6 32.3825 177.157C35.0336 175.449 36.3876 172.798 38.356 170.78C40.7113 168.351 40.0855 166.343 40.131 164.048C40.3131 153.701 33.9299 147.59 25.7717 142.388C19.5023 138.396 14.2114 132.951 6.06464 132.019C3.78899 131.764 3.69797 126.962 0.0341797 127.084" stroke="#185ADB" stroke-width="2" stroke-miterlimit="10"/>
</svg>
