<svg width="39" height="47" viewBox="0 0 39 47" fill="none" xmlns="http://www.w3.org/2000/svg">
<path d="M17.496 46.0517C2.73914 26.7157 0 24.7313 0 17.625C0 7.89095 8.73041 0 19.5 0C30.2696 0 39 7.89095 39 17.625C39 24.7313 36.2609 26.7157 21.504 46.0517C20.5356 47.3161 18.4643 47.316 17.496 46.0517Z" fill="#FFC947"/>
<path d="M19.5 5V17H32C32 10.36 26.4167 5 19.5 5Z" fill="#ED4C5C"/>
<path d="M19.5 29V17H7C7 23.64 12.5833 29 19.5 29Z" fill="#2A5F9E"/>
<path d="M19.5 29V17H32C32 23.64 26.4167 29 19.5 29ZM19.5 5V17H7C7 10.36 12.5833 5 19.5 5Z" fill="#F9F9F9"/>
<path d="M13.2501 12.48L14.5417 13.4L14.0417 11.88L15.3334 10.92H13.7501L13.2501 9.40002L12.7501 10.92H11.1667L12.4584 11.88L11.9584 13.4L13.2501 12.48Z" fill="#2A5F9E"/>
<path d="M25.7501 22.8799L27.0417 23.7999L26.5417 22.2799L27.8334 21.3199H26.2501L25.7501 19.7999L25.2501 21.3199H23.6667L24.9584 22.2799L24.4584 23.7999L25.7501 22.8799Z" fill="#ED4C5C"/>
</svg>
