<svg width="40" height="40" viewBox="0 0 233 219" fill="none" xmlns="http://www.w3.org/2000/svg">
<path d="M45.8191 0C51.4949 0 61.677 1.82054 61.677 16.3224C61.677 30.8242 51.5981 36.4018 45.8191 36.4018C40.0402 36.4018 31.1739 30.7082 31.1739 16.3224C31.1739 1.92763 40.9173 0.00892356 45.8191 0.00892356V0ZM14.6453 18.2054C20.3211 18.2054 30.5031 20.017 30.5031 34.5188C30.5031 49.0207 20.4243 54.5983 14.6453 54.5983C8.86628 54.5983 0 48.9136 0 34.5188C0 20.133 9.74345 18.2054 14.6453 18.2054V18.2054ZM99.3006 16.3224C99.3006 1.82054 89.1186 0.00892356 83.4428 0.00892356C78.541 0.00892356 68.7975 1.92763 68.7975 16.3224C68.7975 30.7082 77.6638 36.4018 83.4428 36.4018C89.2218 36.4018 99.3006 30.8242 99.3006 16.3224ZM113.946 18.2054C119.622 18.2054 129.804 20.017 129.804 34.5188C129.804 49.0207 119.725 54.5983 113.946 54.5983C108.167 54.5983 99.3006 48.9136 99.3006 34.5188C99.3006 20.133 109.044 18.2054 113.946 18.2054ZM107.763 89.3224C107.763 63.2458 91.5093 40.6587 64.9019 40.6587C38.2944 40.6587 22.3076 62.6836 22.3076 89.3224C22.3076 111.49 47.7713 111.49 64.8417 111.49H64.9019C83.847 111.49 107.763 110.794 107.763 89.3224V89.3224ZM117.842 125.715C123.517 125.715 133.699 127.527 133.699 142.029C133.699 156.531 123.621 162.108 117.842 162.108C112.063 162.108 103.196 156.415 103.196 142.029C103.196 127.634 112.94 125.715 117.842 125.715ZM164.873 123.832C164.873 109.33 154.691 107.519 149.015 107.519C144.114 107.519 134.37 109.438 134.37 123.832C134.37 138.218 143.236 143.912 149.015 143.912C154.794 143.912 164.873 138.334 164.873 123.832ZM186.639 107.519C192.315 107.519 202.497 109.33 202.497 123.832C202.497 138.334 192.418 143.912 186.639 143.912C180.86 143.912 171.994 138.218 171.994 123.832C171.994 109.438 181.737 107.519 186.639 107.519ZM233 142.029C233 127.527 222.818 125.715 217.142 125.715C212.24 125.715 202.497 127.634 202.497 142.029C202.497 156.415 211.363 162.108 217.142 162.108C222.921 162.108 233 156.531 233 142.029ZM168.098 148.169C194.706 148.169 210.959 170.747 210.959 196.832C210.959 218.304 187.052 219 168.098 219H168.029C150.968 219 125.504 219 125.504 196.832C125.504 170.194 141.499 148.169 168.098 148.169Z" fill="#2E6CE5"/>
</svg>
