<svg width="40" height="40" viewBox="0 0 40 40" fill="none" xmlns="http://www.w3.org/2000/svg">
<path d="M7.86595 0C8.84033 0 10.5883 0.332518 10.5883 2.98125C10.5883 5.62999 8.85805 6.64874 7.86595 6.64874C6.87385 6.64874 5.35174 5.6088 5.35174 2.98125C5.35174 0.352078 7.02443 0.00162987 7.86595 0.00162987V0ZM2.51421 3.32518C3.4886 3.32518 5.23658 3.65607 5.23658 6.30481C5.23658 8.95354 3.50631 9.97229 2.51421 9.97229C1.52211 9.97229 0 8.93398 0 6.30481C0 3.67726 1.6727 3.32518 2.51421 3.32518V3.32518ZM17.0473 2.98125C17.0473 0.332518 15.2993 0.00162987 14.3249 0.00162987C13.4834 0.00162987 11.8107 0.352078 11.8107 2.98125C11.8107 5.6088 13.3328 6.64874 14.3249 6.64874C15.317 6.64874 17.0473 5.62999 17.0473 2.98125ZM19.5615 3.32518C20.5359 3.32518 22.2839 3.65607 22.2839 6.30481C22.2839 8.95354 20.5536 9.97229 19.5615 9.97229C18.5694 9.97229 17.0473 8.93398 17.0473 6.30481C17.0473 3.67726 18.72 3.32518 19.5615 3.32518ZM18.5 16.3146C18.5 11.5518 15.7097 7.42624 11.1419 7.42624C6.57415 7.42624 3.82963 11.4491 3.82963 16.3146C3.82963 20.3635 8.20108 20.3635 11.1316 20.3635H11.1419C14.3943 20.3635 18.5 20.2363 18.5 16.3146V16.3146ZM20.2303 22.9617C21.2047 22.9617 22.9527 23.2926 22.9527 25.9413C22.9527 28.5901 21.2224 29.6088 20.2303 29.6088C19.2382 29.6088 17.7161 28.5689 17.7161 25.9413C17.7161 23.3121 19.3888 22.9617 20.2303 22.9617ZM28.3044 22.6178C28.3044 19.969 26.5564 19.6381 25.582 19.6381C24.7405 19.6381 23.0678 19.9886 23.0678 22.6178C23.0678 25.2453 24.5899 26.2852 25.582 26.2852C26.5741 26.2852 28.3044 25.2665 28.3044 22.6178ZM32.041 19.6381C33.0154 19.6381 34.7634 19.969 34.7634 22.6178C34.7634 25.2665 33.0331 26.2852 32.041 26.2852C31.0489 26.2852 29.5268 25.2453 29.5268 22.6178C29.5268 19.9886 31.1995 19.6381 32.041 19.6381ZM40 25.9413C40 23.2926 38.252 22.9617 37.2776 22.9617C36.4361 22.9617 34.7634 23.3121 34.7634 25.9413C34.7634 28.5689 36.2855 29.6088 37.2776 29.6088C38.2697 29.6088 40 28.5901 40 25.9413ZM28.858 27.0628C33.4258 27.0628 36.2161 31.1866 36.2161 35.9511C36.2161 39.8729 32.1119 40 28.858 40H28.8462C25.9172 40 21.5457 40 21.5457 35.9511C21.5457 31.0856 24.2917 27.0628 28.858 27.0628Z" fill="#EEBB3F"/>
</svg>
